<?xml version="1.0" encoding="UTF-8" standalone="no"?>
<!-- Created with Inkscape (http://www.inkscape.org/) -->

<svg
   xmlns:dc="http://purl.org/dc/elements/1.1/"
   xmlns:cc="http://creativecommons.org/ns#"
   xmlns:rdf="http://www.w3.org/1999/02/22-rdf-syntax-ns#"
   xmlns:svg="http://www.w3.org/2000/svg"
   xmlns="http://www.w3.org/2000/svg"
   xmlns:xlink="http://www.w3.org/1999/xlink"
   xmlns:sodipodi="http://sodipodi.sourceforge.net/DTD/sodipodi-0.dtd"
   xmlns:inkscape="http://www.inkscape.org/namespaces/inkscape"
   width="378.22107"
   height="542.13654"
   id="svg4684"
   version="1.1"
   inkscape:version="0.48.4 r9939"
   sodipodi:docname="Cuia de chimarrão.svg">
  <title
     id="title3090">Cúia de chimarrão</title>
  <defs
     id="defs4686">
    <linearGradient
       inkscape:collect="always"
       id="linearGradient3824">
      <stop
         style="stop-color:#b3b3b3;stop-opacity:1;"
         offset="0"
         id="stop3826" />
      <stop
         style="stop-color:#b3b3b3;stop-opacity:0;"
         offset="1"
         id="stop3828" />
    </linearGradient>
    <linearGradient
       inkscape:collect="always"
       id="linearGradient3832">
      <stop
         style="stop-color:#b3b3b3;stop-opacity:1;"
         offset="0"
         id="stop3834" />
      <stop
         style="stop-color:#b3b3b3;stop-opacity:0;"
         offset="1"
         id="stop3836" />
    </linearGradient>
    <linearGradient
       id="linearGradient3868">
      <stop
         style="stop-color:#ffffff;stop-opacity:1"
         offset="0"
         id="stop3870" />
      <stop
         style="stop-color:#b3b3b3;stop-opacity:1"
         offset="0.73578739"
         id="stop3837" />
      <stop
         style="stop-color:#666666;stop-opacity:1"
         offset="1"
         id="stop3872" />
    </linearGradient>
    <linearGradient
       inkscape:collect="always"
       id="linearGradient3912">
      <stop
         style="stop-color:#999999;stop-opacity:1;"
         offset="0"
         id="stop3914" />
      <stop
         style="stop-color:#999999;stop-opacity:0;"
         offset="1"
         id="stop3916" />
    </linearGradient>
    <linearGradient
       inkscape:collect="always"
       xlink:href="#linearGradient3912"
       id="linearGradient3172"
       gradientUnits="userSpaceOnUse"
       x1="851.40735"
       y1="777.42114"
       x2="906.38678"
       y2="777.42114"
       gradientTransform="translate(-880.87464,-573.43314)" />
    <radialGradient
       inkscape:collect="always"
       xlink:href="#linearGradient3868"
       id="radialGradient3176"
       gradientUnits="userSpaceOnUse"
       gradientTransform="matrix(1,0,0,1.0277333,-880.87464,-594.16135)"
       cx="905.74261"
       cy="747.41223"
       fx="905.74261"
       fy="747.41223"
       r="17.381495" />
    <linearGradient
       inkscape:collect="always"
       xlink:href="#linearGradient3832"
       id="linearGradient3180"
       gradientUnits="userSpaceOnUse"
       x1="905.42102"
       y1="706.00299"
       x2="980.56744"
       y2="706.00299"
       gradientTransform="translate(-880.87464,-573.43314)" />
    <linearGradient
       inkscape:collect="always"
       xlink:href="#linearGradient3824"
       id="linearGradient3184"
       gradientUnits="userSpaceOnUse"
       x1="963.83057"
       y1="656.51056"
       x2="1009.9848"
       y2="656.51056"
       gradientTransform="translate(-880.87464,-573.43314)" />
  </defs>
  <sodipodi:namedview
     id="base"
     pagecolor="#ffffff"
     bordercolor="#666666"
     borderopacity="1.0"
     inkscape:pageopacity="0.0"
     inkscape:pageshadow="2"
     inkscape:zoom="0.89231433"
     inkscape:cx="31.656618"
     inkscape:cy="245.81231"
     inkscape:document-units="px"
     inkscape:current-layer="layer1"
     showgrid="false"
     fit-margin-top="0"
     fit-margin-left="0"
     fit-margin-right="0"
     fit-margin-bottom="0"
     inkscape:window-width="1280"
     inkscape:window-height="962"
     inkscape:window-x="-8"
     inkscape:window-y="-8"
     inkscape:window-maximized="1" />
  <metadata
     id="metadata4689">
    <rdf:RDF>
      <cc:Work
         rdf:about="">
        <dc:format>image/svg+xml</dc:format>
        <dc:type
           rdf:resource="http://purl.org/dc/dcmitype/StillImage" />
        <dc:title>Cúia de chimarrão</dc:title>
        <dc:date>20/05/2014</dc:date>
        <dc:creator>
          <cc:Agent>
            <dc:title>Prefeitura Municipal de Ajuricaba</dc:title>
          </cc:Agent>
        </dc:creator>
        <dc:publisher>
          <cc:Agent>
            <dc:title>Paulo RS Menezes</dc:title>
          </cc:Agent>
        </dc:publisher>
        <cc:license
           rdf:resource="http://creativecommons.org/licenses/publicdomain/" />
        <dc:source>http://www.ajuricaba.rs.gov.br/paginas/simbolos</dc:source>
        <dc:description>Cúia de chimarrão, bebida típica do Rio Grande do Sul</dc:description>
      </cc:Work>
      <cc:License
         rdf:about="http://creativecommons.org/licenses/publicdomain/">
        <cc:permits
           rdf:resource="http://creativecommons.org/ns#Reproduction" />
        <cc:permits
           rdf:resource="http://creativecommons.org/ns#Distribution" />
        <cc:permits
           rdf:resource="http://creativecommons.org/ns#DerivativeWorks" />
      </cc:License>
    </rdf:RDF>
  </metadata>
  <g
     inkscape:label="Camada 1"
     inkscape:groupmode="layer"
     id="layer1"
     transform="translate(249.10054,-58.430592)">
    <g
       id="g3956">
      <path
         inkscape:connector-curvature="0"
         id="path4314"
         d="m -231.2396,223.05591 1.45985,-5.47445 6.20438,-2.91971 6.20438,-7.29927 5.47445,-1.45985 16.42336,1.82481 9.85401,1.45986 5.47446,0.36496 4.37956,-4.0146 13.13869,-9.12408 13.13868,-6.93431 6.56934,-0.36496 13.13869,8.39416 4.0146,2.55474 2.18978,7.29927 2.55474,3.64964 6.20438,-4.37957 6.56935,-5.47445 4.37956,1.09489 6.93431,5.10949 4.01459,2.91971 5.10949,-4.74453 7.66424,-2.55474 13.50365,0.36496 6.9343,4.74453 6.93431,8.39416 5.47445,2.91971 5.47445,-2.91971 3.64964,-4.74453 10.94891,-0.72992 38.68613,5.10948 10.21897,4.0146 4.37957,5.10949 0.72992,8.39416 -14.9635,16.78832 -35.40146,12.0438 -64.59854,5.47445 -71.53285,-1.82482 -34.30657,-5.83941 -24.08759,-9.48905 -12.40876,-9.12409 z"
         style="fill:#467738;fill-opacity:1;stroke:#ff0000;stroke-width:1px;stroke-linecap:butt;stroke-linejoin:miter;stroke-opacity:1" />
      <path
         sodipodi:nodetypes="ccccc"
         inkscape:connector-curvature="0"
         id="path3782"
         d="m 84.08723,93.02682 c 4.35017,5.60488 8.80487,11.02391 14.84447,13.62535 10.85438,-5.56985 22.69806,-17.11271 27.89606,-28.03954 5.8777,-10.09125 -5.4981,-21.26555 -12.90818,-18.57351 -10.37077,4.27753 -24.91,22.4313 -29.83235,32.9877 z"
         style="fill:#ffffff;stroke:#ffffff;stroke-width:0.5;stroke-linecap:butt;stroke-linejoin:miter;stroke-miterlimit:4;stroke-opacity:1;stroke-dasharray:none" />
      <path
         sodipodi:nodetypes="cccc"
         inkscape:connector-curvature="0"
         id="path3758"
         d="m 83.45595,93.19026 c 4.43898,5.90925 9.26148,11.20487 15.63147,14.0245 C 116.73988,97.06049 144.15036,69.32339 117.49458,59.00554 107.30479,57.40539 85.61965,85.576 83.45595,93.19026 z"
         style="fill:url(#linearGradient3184);fill-opacity:1;stroke:#000000;stroke-width:1px;stroke-linecap:butt;stroke-linejoin:miter;stroke-opacity:1" />
      <path
         inkscape:connector-curvature="0"
         id="path3780"
         d="M 26.0002,157.2094 41.41836,170.83476 98.14286,107.58443 83.51353,94.38935 z"
         style="fill:#ffffff;stroke:#ffffff;stroke-width:0.69999999;stroke-linecap:butt;stroke-linejoin:miter;stroke-miterlimit:4;stroke-opacity:1;stroke-dasharray:none" />
      <path
         sodipodi:nodetypes="ccccc"
         inkscape:connector-curvature="0"
         id="path2990"
         d="m 83.55635,93.34923 c 4.18203,5.46085 8.91304,10.87666 15.63643,13.98184 l -57.699,64.45947 -16.44737,-14.47368 z"
         style="fill:url(#linearGradient3180);fill-opacity:1;stroke:#000000;stroke-width:1px;stroke-linecap:butt;stroke-linejoin:miter;stroke-opacity:1" />
      <path
         sodipodi:nodetypes="ccccc"
         inkscape:connector-curvature="0"
         id="path3778"
         d="m 8.6458,174.49209 17.13926,16.35042 c 6.75166,-0.48958 15.53323,-7.70927 15.34645,-18.21494 L 24.70938,157.85481 C 21.30081,155.80409 8.70402,161.66852 8.6458,174.49209 z"
         style="fill:#ffffff;fill-opacity:1;stroke:#ffffff;stroke-width:0.60000002;stroke-linecap:butt;stroke-linejoin:miter;stroke-miterlimit:4;stroke-opacity:1;stroke-dasharray:none" />
      <path
         sodipodi:nodetypes="ccccc"
         inkscape:connector-curvature="0"
         id="path3840"
         d="m 24.84344,157.18191 16.59706,14.61607 c 2.44996,9.88753 -10.29248,21.79138 -16.22409,19.17895 L 8.3368,175.40835 c -2.67089,-9.63559 10.62091,-21.54094 16.50664,-18.22644 z"
         style="fill:url(#radialGradient3176);fill-opacity:1;stroke:#000000;stroke-width:1px;stroke-linecap:butt;stroke-linejoin:miter;stroke-opacity:1" />
      <path
         sodipodi:nodetypes="ccccc"
         inkscape:connector-curvature="0"
         id="path3008"
         d="m -28.27914,216.78363 36.92079,-40.2748 15.53634,14.32879 -35.4854,40.55777 c -9.26855,-10.7498 -14.07486,-7.16292 -16.97173,-14.61176 z"
         style="fill:#ffffff;stroke:#ffffff;stroke-width:0.2;stroke-linecap:butt;stroke-linejoin:miter;stroke-miterlimit:4;stroke-opacity:1;stroke-dasharray:none" />
      <path
         sodipodi:nodetypes="ccccc"
         inkscape:connector-curvature="0"
         id="path3878"
         d="m 8.60665,175.65563 -37.57392,40.98866 c 3.18419,8.55535 8.96929,4.49142 17.65202,15.67605 l 36.32742,-41.52587 z"
         style="fill:url(#linearGradient3172);fill-opacity:1;stroke:#000000;stroke-width:1px;stroke-linecap:butt;stroke-linejoin:miter;stroke-opacity:1" />
      <path
         sodipodi:nodetypes="ccccc"
         inkscape:connector-curvature="0"
         id="path3920"
         d="m 6.20985,213.11012 c 8.76639,1.54737 14.9035,4.54828 19.63396,7.24877 l -2.61907,2.58685 c -3.63272,-3.58251 -11.72186,-5.232 -19.73008,-6.69733 z"
         style="fill:#000000;fill-opacity:1;stroke:#000000;stroke-width:0.10000000000000001;stroke-linecap:butt;stroke-linejoin:miter;stroke-miterlimit:4;stroke-opacity:1;stroke-dasharray:none" />
      <path
         sodipodi:nodetypes="ccccccccccccccccccccccccccccccccccccccccccccccccccccccccccccccccccccccccccccccc"
         inkscape:connector-curvature="0"
         id="path3810"
         d="m -230.73114,243.42309 12.77177,9.73087 32.23349,10.64314 35.27439,3.95316 43.18072,1.21636 62.94654,-2.43272 55.04021,-12.46767 9.42678,-5.7777 5.16952,4.86543 -26.45579,25.23943 -5.7777,25.23944 11.5554,35.88257 22.80672,29.1926 2.43272,33.75394 -6.99406,27.36802 -18.24538,68.1161 -32.84167,53.8239 -30.10487,27.6721 -27.13526,15.624 -35.81128,-21.4017 -30.71305,-24.0231 -30.71304,-37.403 -26.75989,-41.3562 -19.28407,-58.64634 -1.31603,-9.502 14.37573,0.86474 25.9902,11.93933 6.08179,-0.30409 0,-4.56134 -13.98812,-0.91227 -7.60224,-1.21636 -3.0409,-3.64907 47.74206,-1.52045 1.82454,-3.64908 -64.77108,-0.91227 -7.83205,-0.30408 -1.05527,-11.8595 6.45461,-1.21636 35.88257,6.08179 13.07585,2.12863 0.30409,-3.64907 -55.44924,-10.30284 3.14583,-7.03027 41.96436,3.34499 10.64314,1.82453 0.91227,-3.95316 -53.51977,-5.47361 5.7777,-14.29221 7.90633,-9.42678 42.87663,5.7777 3.0409,-1.52044 -12.77177,-5.47362 0,-3.04089 11.25132,-1.52045 1.82454,-6.68997 4.25725,0 -0.60818,-7.29815 1.21636,-1.52045 2.43272,-5.16952 12.46767,-2.73681 24.63125,-0.60818 2.73681,-0.91227 -3.0409,-3.34498 -14.90039,-1.21636 -5.7777,-3.95316 -28.28033,-10.64314 -10.33904,-1.52045 -2.73681,-6.68997 2.43272,-2.43271 10.03495,-0.91227 -2.12862,-2.73681 -5.47362,-0.91227 -0.91226,-5.16952 -8.51451,-5.16952 -22.19854,-3.64908 -14.5963,-7.60224 -4.25725,-5.7777 -3.0409,-4.56134 z"
         style="fill:#673c32;fill-opacity:1;stroke:#ff00ff;stroke-width:1px;stroke-linecap:butt;stroke-linejoin:miter;stroke-opacity:1" />
      <path
         sodipodi:nodetypes="ccccccc"
         inkscape:connector-curvature="0"
         id="path3922"
         d="m 25.85069,220.34901 c 5.47664,-0.42268 9.48629,-0.24894 13.12216,4.40472 2.34585,3.1203 -1.53037,7.0981 2.02058,12.04687 0.93716,9.19297 -3.94645,15.40094 -10.35547,20.82664 L 6.28237,249.58585 c 12.26182,-3.12416 16.4229,-13.3038 16.95058,-26.64802 z"
         style="fill:#000000;fill-opacity:1;stroke:#000000;stroke-width:0.10000000000000001;stroke-linecap:butt;stroke-linejoin:miter;stroke-miterlimit:4;stroke-opacity:1;stroke-dasharray:none" />
      <path
         sodipodi:nodetypes="cc"
         inkscape:connector-curvature="0"
         id="path3812-1"
         d="m -6.07584,279.51831 c -13.30869,3.80431 -20.94867,8.7062 -45.34051,7.6968"
         style="opacity:0.8;fill:#673c32;fill-opacity:1;stroke:#4a372e;stroke-width:1px;stroke-linecap:butt;stroke-linejoin:miter;stroke-opacity:1" />
      <path
         sodipodi:nodetypes="cc"
         inkscape:connector-curvature="0"
         id="path3812"
         d="m 2.67662,266.9917 c -16.62356,-1.70186 -29.09789,7.61995 -42.37647,9.65059"
         style="opacity:0.8;fill:#673c32;fill-opacity:1;stroke:#4a372e;stroke-width:1px;stroke-linecap:butt;stroke-linejoin:miter;stroke-opacity:1" />
      <path
         sodipodi:nodetypes="cc"
         inkscape:connector-curvature="0"
         id="path3812-1-7"
         d="m -8.54704,288.27033 c -13.30869,3.80431 -7.11782,9.50222 -31.50966,8.49282"
         style="opacity:0.8;fill:#673c32;fill-opacity:1;stroke:#4a372e;stroke-width:1px;stroke-linecap:butt;stroke-linejoin:miter;stroke-opacity:1" />
      <path
         sodipodi:nodetypes="cc"
         inkscape:connector-curvature="0"
         id="path3812-1-7-4"
         d="m -10.59244,300.05753 c -15.84903,8.43389 -11.26287,15.57908 -33.89772,8.59232"
         style="opacity:0.8;fill:#673c32;fill-opacity:1;stroke:#4a372e;stroke-width:1px;stroke-linecap:butt;stroke-linejoin:miter;stroke-opacity:1" />
      <path
         sodipodi:nodetypes="cc"
         inkscape:connector-curvature="0"
         id="path3812-1-9"
         d="m -10.14468,299.55196 c -8.63207,2.01327 -9.00837,2.33804 -19.27086,2.22416"
         style="opacity:0.8;fill:#673c32;fill-opacity:1;stroke:#4a372e;stroke-width:1px;stroke-linecap:butt;stroke-linejoin:miter;stroke-opacity:1" />
      <path
         sodipodi:nodetypes="cc"
         inkscape:connector-curvature="0"
         id="path3812-1-4"
         d="m -9.64717,311.69126 c -3.04266,7.55583 -21.19888,1.12188 -27.82807,6.40327"
         style="opacity:0.8;fill:#673c32;fill-opacity:1;stroke:#4a372e;stroke-width:1px;stroke-linecap:butt;stroke-linejoin:miter;stroke-opacity:1" />
      <path
         sodipodi:nodetypes="cc"
         inkscape:connector-curvature="0"
         id="path3812-1-8"
         d="m -7.55762,318.75593 c -4.35347,9.77446 -36.37156,1.24351 -44.7435,9.58735"
         style="opacity:0.8;fill:#673c32;fill-opacity:1;stroke:#4a372e;stroke-width:1px;stroke-linecap:butt;stroke-linejoin:miter;stroke-opacity:1" />
      <path
         sodipodi:nodetypes="cc"
         inkscape:connector-curvature="0"
         id="path3812-1-82"
         d="m -1.48797,332.08927 c -3.95546,3.3068 -13.78449,-2.83609 -25.63901,1.92566"
         style="opacity:0.8;fill:#673c32;fill-opacity:1;stroke:#4a372e;stroke-width:1px;stroke-linecap:butt;stroke-linejoin:miter;stroke-opacity:1" />
      <path
         sodipodi:nodetypes="ccccc"
         inkscape:connector-curvature="0"
         id="path3924"
         d="m 16.81273,253.08477 c -55.54296,43.07462 -14.25417,89.43675 -1.54148,104.72194 l 16.163236,-2.02739 C 6.4467758,326.28012 -15.04884,289.52661 30.61116,257.63298 z"
         style="fill:#000000;fill-opacity:1;stroke:#000000;stroke-width:0.1;stroke-linecap:butt;stroke-linejoin:miter;stroke-miterlimit:4;stroke-opacity:1;stroke-dasharray:none" />
      <path
         sodipodi:nodetypes="ccccc"
         inkscape:connector-curvature="0"
         id="path3784"
         d="m 6.29356,249.60045 c -32.22763,12.186 -63.45756,11.07822 -94.97731,13.7078 l 0,7.63388 c 33.28172,-2.28125 63.95649,0.53805 105.4898,-17.88761 z"
         style="fill:#000000;fill-opacity:1;stroke:#000000;stroke-width:0.10000000000000001;stroke-linecap:butt;stroke-linejoin:miter;stroke-miterlimit:4;stroke-opacity:1;stroke-dasharray:none" />
      <path
         sodipodi:nodetypes="ccccc"
         inkscape:connector-curvature="0"
         id="path3786"
         d="m -88.68127,263.3075 c -54.80341,-1.41442 -115.31711,1.81494 -138.30955,-24.93044 l -3.0037,9.24218 c 24.51448,21.88783 83.20968,22.42611 141.30951,23.32309 z"
         style="fill:#000000;stroke:#000000;stroke-width:0.10000000000000001;stroke-linecap:butt;stroke-linejoin:miter;stroke-miterlimit:4;stroke-opacity:1;stroke-dasharray:none" />
      <path
         sodipodi:nodetypes="ccccc"
         inkscape:connector-curvature="0"
         id="path3788"
         d="m -23.00661,209.33 c -7.74076,-0.36744 -17.29304,-1.12162 -24.09008,7.8125 l 2.56402,3.04983 c 4.24275,-8.33474 13.36959,-7.39006 17.93282,-6.94008 z"
         style="fill:#000000;fill-opacity:1;stroke:#000000;stroke-width:0.10000000000000001;stroke-linecap:butt;stroke-linejoin:miter;stroke-miterlimit:4;stroke-opacity:1;stroke-dasharray:none" />
      <path
         sodipodi:nodetypes="ccccc"
         inkscape:connector-curvature="0"
         id="path3790"
         d="m -44.52179,220.17291 c -1.72061,9.4835 25.9235,-4.41882 25.97826,13.01701 l -2.89762,0 c -3.05878,-13.87731 -31.46632,2.73918 -25.63275,-16.02607 z"
         style="fill:#000000;stroke:#000000;stroke-width:0.10000000000000001;stroke-linecap:butt;stroke-linejoin:miter;stroke-miterlimit:4;stroke-opacity:1;stroke-dasharray:none" />
      <path
         sodipodi:nodetypes="ccccc"
         inkscape:connector-curvature="0"
         id="path3792"
         d="m -47.07718,217.15759 c -8.35599,-2.03501 -12.64264,-13.90847 -18.58564,-15.79548 l -1.24176,3.02678 c 7.22972,3.58851 10.14315,14.10514 19.09968,16.03799 0.12212,-1.08066 0.43752,-2.26866 0.72772,-3.26929 z"
         style="fill:#000000;stroke:#000000;stroke-width:0.10000000000000001;stroke-linecap:butt;stroke-linejoin:miter;stroke-miterlimit:4;stroke-opacity:1;stroke-dasharray:none" />
      <path
         sodipodi:nodetypes="ccccccc"
         inkscape:connector-curvature="0"
         id="path3794"
         d="m -66.8627,204.30394 c -33.05386,-3.09201 -23.04792,12.78083 -16.94741,10.98567 l 0.067,3.08135 c -4.1537,0.66784 -7.6726,-0.38445 -9.07658,-7.16748 l 0.0335,-3.81819 c 6.22636,-8.90998 16.94981,-5.60409 27.12927,-6.09572 z"
         style="fill:#000000;stroke:#000000;stroke-width:0.10000000000000001;stroke-linecap:butt;stroke-linejoin:miter;stroke-miterlimit:4;stroke-opacity:1;stroke-dasharray:none" />
      <path
         sodipodi:nodetypes="ccccc"
         inkscape:connector-curvature="0"
         id="path3796"
         d="m -92.81293,211.16841 c -12.15179,-4.36062 -10.03507,-14.92074 -25.4743,-0.2822 l -0.9324,-2.68066 c 13.67231,-17.64464 21.78686,-1.44234 26.45688,-0.89949 z"
         style="fill:#000000;stroke:#000000;stroke-width:0.10000000000000001;stroke-linecap:butt;stroke-linejoin:miter;stroke-miterlimit:4;stroke-opacity:1;stroke-dasharray:none" />
      <path
         sodipodi:nodetypes="cccccccccc"
         inkscape:connector-curvature="0"
         id="path3798"
         d="m -119.17986,208.17701 c -4.8563,0.47634 -4.81901,-11.18363 -6.57506,-11.00877 -9.23555,-2.40361 -15.05285,-13.29698 -25.51632,-9.78708 -15.04835,10.31923 -19.97339,8.69971 -29.01169,20.04021 l 0,3.14585 2.67979,0 c 2.70454,-6.78369 17.1398,-11.52483 27.73006,-19.57416 7.9869,-2.39937 12.13318,6.26621 21.78789,8.97149 1.00068,2.85986 3.37885,14.61834 9.77748,10.89226 z"
         style="fill:#000000;stroke:#000000;stroke-width:0.10000000000000001;stroke-linecap:butt;stroke-linejoin:miter;stroke-miterlimit:4;stroke-opacity:1;stroke-dasharray:none" />
      <path
         sodipodi:nodetypes="ccccc"
         inkscape:connector-curvature="0"
         id="path3800"
         d="m -230.33734,225.54311 c -0.69819,-9.13304 4.93983,-5.24664 15.0967,-17.62558 l -0.38317,-3.52512 c -15.42895,15.69387 -16.75061,9.77245 -17.70222,19.31151 z"
         style="fill:#000000;stroke:#000000;stroke-width:0.10000000000000001;stroke-linecap:butt;stroke-linejoin:miter;stroke-miterlimit:4;stroke-opacity:1;stroke-dasharray:none" />
      <path
         sodipodi:nodetypes="ccccc"
         inkscape:connector-curvature="0"
         id="path3802"
         d="m -180.27518,207.33235 c -14.01143,0.0746 -27.20525,-5.04655 -35.31766,-2.99782 l 0.19893,3.73626 c 12.92543,-3.38802 19.88578,3.11889 35.11019,2.49484 z"
         style="fill:#000000;stroke:#000000;stroke-width:0.10000000000000001;stroke-linecap:butt;stroke-linejoin:miter;stroke-miterlimit:4;stroke-opacity:1;stroke-dasharray:none" />
      <path
         sodipodi:nodetypes="cccccc"
         inkscape:connector-curvature="0"
         id="path3806"
         d="m -227.00684,238.42843 c 0.78283,-5.74844 -0.53782,-9.93067 -3.32946,-12.8817 l -2.98838,-1.84865 c -18.44506,4.92525 -17.13503,17.67022 -13.52284,31.32646 l 16.87249,-7.46199 z"
         style="fill:#000000;stroke:#000000;stroke-width:0.10000000000000001;stroke-linecap:butt;stroke-linejoin:miter;stroke-miterlimit:4;stroke-opacity:1;stroke-dasharray:none" />
      <path
         sodipodi:nodetypes="cccccccccccccccccccc"
         inkscape:connector-curvature="0"
         id="path3808"
         d="m -246.83802,255.0474 c 8.78194,28.30357 50.2709,24.91404 24.93893,81.64192 l 6.63475,11.09936 c 15.83896,2.51299 31.67791,4.34594 47.51687,5.23808 1.02242,-2.61904 3.58082,-5.23808 -0.7483,-7.85712 l -10.47616,-2.99319 c 6.88451,0.77341 12.01366,-0.20853 10.85031,-7.48297 4.81013,0.28123 9.55889,-3.07491 4.48978,-7.10882 2.37649,-0.86614 3.03959,-3.44566 2.99319,-6.73468 5.78476,2.08271 12.52808,-1.5859 19.08158,-4.11563 5.11336,-0.76035 8.70628,0.87544 15.34009,0.74829 8.63952,0.86834 7.64774,-8.71539 1.12245,-10.10201 l -13.4455,-0.60818 c -1.99474,-7.14185 -4.728,-7.15929 -9.75171,-7.62309 -11.73495,-3.01486 -19.32918,-10.1832 -32.50322,-8.16121 -1.16303,1.02282 -5.02185,-5.28052 -0.0477,-5.30813 16.78637,3.86265 11.70191,-10.38908 0.7483,-8.23127 2.32993,-5.76151 -0.68238,-7.36796 -5.61223,-7.48297 -7.44827,-12.72452 -37.21408,0.11876 -44.30518,-22.36225 z"
         style="fill:#000000;fill-opacity:1;stroke:#000000;stroke-width:0.10000000000000001;stroke-linecap:butt;stroke-linejoin:miter;stroke-miterlimit:4;stroke-opacity:1;stroke-dasharray:none" />
      <path
         sodipodi:nodetypes="cccccccc"
         inkscape:connector-curvature="0"
         id="path3832"
         d="m -85.87105,270.76212 0.0846,1.53297 c 14.72307,6.82748 16.30449,3.13391 25.5434,4.82273 0.72235,0.20758 1.12946,2.41246 -0.82332,2.18733 -8.02471,-1.00169 -12.54307,1.70391 -22.96497,-3.92383 -1.20126,-0.18473 -2.56999,-0.27376 -4.57361,0 l -0.0781,-4.44605 z"
         style="fill:#000000;stroke:#000000;stroke-width:0.10000000000000001;stroke-linecap:butt;stroke-linejoin:miter;stroke-miterlimit:4;stroke-opacity:1;stroke-dasharray:none" />
      <path
         sodipodi:nodetypes="cc"
         inkscape:connector-curvature="0"
         id="path3812-1-45"
         d="m 11.04935,357.76091 c -7.83605,-2.56385 -2.93872,5.52212 -21.36041,7.5973"
         style="opacity:0.8;fill:#673c32;fill-opacity:1;stroke:#4a372e;stroke-width:1px;stroke-linecap:butt;stroke-linejoin:miter;stroke-opacity:1" />
      <path
         sodipodi:nodetypes="cc"
         inkscape:connector-curvature="0"
         id="path3812-1-5"
         d="m 16.72099,365.82061 c -0.87088,8.58043 -16.07305,6.91516 -22.15643,-0.95992"
         style="opacity:0.8;fill:#673c32;fill-opacity:1;stroke:#4a372e;stroke-width:1px;stroke-linecap:butt;stroke-linejoin:miter;stroke-opacity:1" />
      <path
         sodipodi:nodetypes="cc"
         inkscape:connector-curvature="0"
         id="path3812-1-45-2"
         d="m 21.9344,421.7466 c -3.81485,2.55405 -20.23969,3.3135 -26.05097,-2.86034"
         style="opacity:0.8;fill:#673c32;fill-opacity:1;stroke:#4a372e;stroke-width:1px;stroke-linecap:butt;stroke-linejoin:miter;stroke-opacity:1" />
      <path
         sodipodi:nodetypes="cc"
         inkscape:connector-curvature="0"
         id="path3812-1-45-7"
         d="m 21.8575,422.36177 c -1.99208,1.5884 -5.24555,7.36759 -12.82513,8.13559"
         style="opacity:0.8;fill:#673c32;fill-opacity:1;stroke:#4a372e;stroke-width:1px;stroke-linecap:butt;stroke-linejoin:miter;stroke-opacity:1" />
      <path
         sodipodi:nodetypes="cc"
         inkscape:connector-curvature="0"
         id="path3812-1-45-6"
         d="m 17.7821,442.66186 c -12.37281,4.2797 -19.54791,3.0615 -25.97407,10.75"
         style="opacity:0.8;fill:#673c32;fill-opacity:1;stroke:#4a372e;stroke-width:1px;stroke-linecap:butt;stroke-linejoin:miter;stroke-opacity:1" />
      <path
         sodipodi:nodetypes="cssc"
         inkscape:connector-curvature="0"
         id="path3812-1-45-14-2-1"
         d="m -50.47524,569.54906 c -5.28879,0.9651 -31.99088,3.9664 -54.7501,0.3239 -3.0926,-0.495 -6.10976,-3.9351 -6.72586,-3.9131 -5.16293,0.1846 -7.99251,-2.3612 -6.35802,-5.9219"
         style="opacity:0.8;fill:#673c32;fill-opacity:1;stroke:#4a372e;stroke-width:1px;stroke-linecap:butt;stroke-linejoin:miter;stroke-opacity:1" />
      <path
         sodipodi:nodetypes="csc"
         inkscape:connector-curvature="0"
         id="path3812-1-45-14-2-9"
         d="m -79.16059,588.52986 c -1.47604,-1.576 -2.59753,0.2336 -3.63796,-1.9538 -4.91372,-10.3305 -15.50191,3.4427 -12.24842,-15.4065"
         style="opacity:0.8;fill:#673c32;fill-opacity:1;stroke:#4a372e;stroke-width:1px;stroke-linecap:butt;stroke-linejoin:miter;stroke-opacity:1" />
      <path
         sodipodi:nodetypes="ccccc"
         inkscape:connector-curvature="0"
         id="path3946"
         d="m 15.35567,357.88538 c 29.37519,25.93244 -16.05709,202.13368 -97.92523,230.54028 l 0,11.8644 c 35.08795,7.0625 175.35305,-159.6321 114.03344,-244.47461 z"
         style="fill:#000000;stroke:#000000;stroke-width:0.10000000000000001;stroke-linecap:butt;stroke-linejoin:miter;stroke-miterlimit:4;stroke-opacity:1;stroke-dasharray:none" />
      <path
         sodipodi:nodetypes="cssc"
         inkscape:connector-curvature="0"
         id="path3812-1-45-14-22-2"
         d="m -172.34442,356.98036 c -3.25309,-0.40451 -15.32933,1.29816 -22.06728,0.82671 -1.52474,-0.10669 4.80658,-2.762 2.98895,-2.81833 -10.94972,-0.33938 -27.94758,0.78384 -31.07501,0.33221"
         style="opacity:0.8;fill:#673c32;fill-opacity:1;stroke:#4a372e;stroke-width:1px;stroke-linecap:butt;stroke-linejoin:miter;stroke-opacity:1" />
      <path
         sodipodi:nodetypes="cc"
         inkscape:connector-curvature="0"
         id="path3812-1-45-14-22-79"
         d="m -182.76248,422.34301 c -26.63611,-4.01301 -21.77281,4.23315 -43.1604,-3.22925"
         style="opacity:0.8;fill:#673c32;fill-opacity:1;stroke:#4a372e;stroke-width:1px;stroke-linecap:butt;stroke-linejoin:miter;stroke-opacity:1" />
      <path
         sodipodi:nodetypes="csc"
         inkscape:connector-curvature="0"
         id="path3812-1-45-14-22-33"
         d="m -147.22689,471.43636 c -7.34029,1.5659 -41.53195,6.1193 -43.05579,-0.196 -0.83261,-3.4506 -12.60241,0.5586 -14.51865,0.9627"
         style="opacity:0.8;fill:#673c32;fill-opacity:1;stroke:#4a372e;stroke-width:1px;stroke-linecap:butt;stroke-linejoin:miter;stroke-opacity:1" />
      <path
         sodipodi:nodetypes="cc"
         inkscape:connector-curvature="0"
         id="path3812-1-45-14-2-5"
         d="m -136.24588,522.02546 c -4.43837,3.3114 -28.56701,-10.7823 -34.72452,-0.9483"
         style="opacity:0.8;fill:#673c32;fill-opacity:1;stroke:#4a372e;stroke-width:1px;stroke-linecap:butt;stroke-linejoin:miter;stroke-opacity:1" />
      <path
         sodipodi:nodetypes="cc"
         inkscape:connector-curvature="0"
         id="path3812-1-45-14-2-0"
         d="m -147.80565,533.44256 c -7.57806,0.029 -9.30073,-1.2205 -13.31754,0.4788"
         style="opacity:0.8;fill:#673c32;fill-opacity:1;stroke:#4a372e;stroke-width:1px;stroke-linecap:butt;stroke-linejoin:miter;stroke-opacity:1" />
      <path
         sodipodi:nodetypes="ccccc"
         inkscape:connector-curvature="0"
         id="path3948"
         d="m -215.3488,347.8207 c -57.27654,65.66916 73.94475,233.49496 132.6805,240.61576 l -0.002,11.8311 c -84.50996,-15.789 -209.69525,-196.48387 -139.29386,-263.49755 z"
         style="fill:#000000;stroke:#000000;stroke-width:0.10000000000000001;stroke-linecap:butt;stroke-linejoin:miter;stroke-miterlimit:4;stroke-opacity:1;stroke-dasharray:none" />
      <path
         sodipodi:nodetypes="ccccc"
         inkscape:connector-curvature="0"
         id="path3950"
         d="m -228.11557,366.96274 49.33228,4.57575 c 8.12916,-0.18073 7.39613,9.18646 -0.42897,7.29259 l -50.61922,-4.28976 z"
         style="fill:#000000;fill-opacity:1;stroke:#000000;stroke-width:1px;stroke-linecap:butt;stroke-linejoin:miter;stroke-opacity:1" />
      <path
         sodipodi:nodetypes="ccccc"
         inkscape:connector-curvature="0"
         id="path3950-1"
         d="m -230.15421,379.31072 50.4315,7.56984 c 8.36903,0.31527 7.02674,9.61147 -0.89932,7.24595 l -51.77258,-7.36308 z"
         style="fill:#000000;fill-opacity:1;stroke:#000000;stroke-width:1.01442266px;stroke-linecap:butt;stroke-linejoin:miter;stroke-opacity:1" />
      <path
         sodipodi:nodetypes="ccccc"
         inkscape:connector-curvature="0"
         id="path3950-7"
         d="m -230.66558,396.39307 66.46797,1.05716 c 10.8625,-0.80088 10.78673,9.02576 0.13069,7.63959 l -68.16275,-0.66188 z"
         style="fill:#000000;fill-opacity:1;stroke:#000000;stroke-width:1.18466198px;stroke-linecap:butt;stroke-linejoin:miter;stroke-opacity:1" />
      <path
         sodipodi:nodetypes="ccccc"
         inkscape:connector-curvature="0"
         id="path3988"
         d="m -208.96483,404.59776 c 4.62681,4.15463 12.10557,4.21925 23.17493,4.69065 6.30913,-0.28421 6.8975,6.53078 -0.14299,7.43559 -6.20362,-0.0769 -31.89705,-1.5277 -32.52561,-12.30753 z"
         style="fill:#000000;stroke:#000000;stroke-width:1px;stroke-linecap:butt;stroke-linejoin:miter;stroke-opacity:1" />
      <path
         sodipodi:nodetypes="cccccccc"
         inkscape:connector-curvature="0"
         id="path3992"
         d="m -109.38655,431.82496 c 5.84308,-0.4568 12.89334,0.466 16.92479,-2.0613 9.24807,-0.6212 18.12708,-0.1352 26.79757,0.9764 l 1.4104,6.2926 c -2.25017,0.2771 -4.07543,-0.7205 -5.75009,-2.1699 -2.10892,-0.016 -5.37764,0.6317 -8.3539,1.1934 -12.60326,1.0715 -20.01882,-2.4702 -31.13726,-1.9528 z"
         style="fill:#000000;fill-opacity:1;stroke:#000000;stroke-width:0.20000000000000001;stroke-linecap:butt;stroke-linejoin:miter;stroke-miterlimit:4;stroke-opacity:1;stroke-dasharray:none" />
      <path
         sodipodi:nodetypes="ccccc"
         inkscape:connector-curvature="0"
         id="path3994"
         d="m -65.88117,430.74006 c 12.65384,-6.08259 40.23104,-3.8398 57.82635,-4.1227 2.76278,-0.58222 3.73143,1.1285 2.06135,2.4953 -20.55021,8.5343 -38.19734,11.1999 -58.4773,7.8115 z"
         style="fill:#000000;fill-opacity:1;stroke:#000000;stroke-width:0.30000000999999998;stroke-linecap:butt;stroke-linejoin:miter;stroke-miterlimit:4;stroke-opacity:1;stroke-dasharray:none" />
      <path
         transform="translate(-880.87464,-573.43314)"
         d="m 824.75774,1007.0483 c 0,0.5093 -1.70008,0.9222 -3.79723,0.9222 -2.09715,0 -3.79723,-0.4129 -3.79723,-0.9222 0,-0.5093 1.70008,-0.9222 3.79723,-0.9222 2.09715,0 3.79723,0.4129 3.79723,0.9222 z"
         sodipodi:ry="0.92218375"
         sodipodi:rx="3.7972274"
         sodipodi:cy="1007.0483"
         sodipodi:cx="820.96051"
         id="path3996"
         style="opacity:0.80000000000000004;fill:#673c32;fill-opacity:1;fill-rule:nonzero;stroke:#000000;stroke-width:0.30000000999999998;stroke-miterlimit:4;stroke-opacity:1;stroke-dasharray:none"
         sodipodi:type="arc" />
      <path
         transform="translate(-880.87464,-573.43314)"
         d="m 834.1966,1005.0411 c 0,0.5992 -1.23862,1.0849 -2.76655,1.0849 -1.52792,0 -2.76655,-0.4857 -2.76655,-1.0849 0,-0.5992 1.23863,-1.0849 2.76655,-1.0849 1.52793,0 2.76655,0.4857 2.76655,1.0849 z"
         sodipodi:ry="1.0849221"
         sodipodi:rx="2.7665513"
         sodipodi:cy="1005.0411"
         sodipodi:cx="831.43005"
         id="path3998"
         style="opacity:0.80000000000000004;fill:#673c32;fill-opacity:1;stroke:#000000;stroke-width:0.30000000999999998;stroke-miterlimit:4;stroke-opacity:1;stroke-dasharray:none"
         sodipodi:type="arc" />
      <path
         transform="matrix(0.97878104,-0.20490893,0.20490893,0.97878104,-1068.069,-379.30045)"
         d="m 848.95155,1005.5294 c 0,0.8688 -3.01156,1.5732 -6.72651,1.5732 -3.71496,0 -6.72652,-0.7044 -6.72652,-1.5732 0,-0.8688 3.01156,-1.5731 6.72652,-1.5731 3.71495,0 6.72651,0.7043 6.72651,1.5731 z"
         sodipodi:ry="1.573137"
         sodipodi:rx="6.7265167"
         sodipodi:cy="1005.5294"
         sodipodi:cx="842.22504"
         id="path4000"
         style="opacity:0.80000000000000004;fill:#673c32;fill-opacity:1;stroke:#000000;stroke-width:0.30000000999999998;stroke-miterlimit:4;stroke-opacity:1;stroke-dasharray:none"
         sodipodi:type="arc" />
      <path
         sodipodi:nodetypes="ccccccc"
         inkscape:connector-curvature="0"
         id="path4002"
         d="m -33.11388,376.77635 c 12.87817,3.6587 6.76981,11.23738 11.61106,13.6872 2.64796,1.48285 6.82781,-3.41575 19.91565,-2.6913 0.68296,1.0527 1.25043,2.12851 0.92273,3.38335 -12.0596,-1.80702 -18.21062,3.5976 -21.76111,2.38373 -4.76093,-2.52408 -2.95227,-12.97305 -11.14969,-13.30273 -0.72335,-2.7615 0.0205,-2.83314 0.46136,-3.46025 z"
         style="fill:#000000;fill-opacity:1;stroke:#000000;stroke-width:0.20000000000000001;stroke-linecap:butt;stroke-linejoin:miter;stroke-miterlimit:4;stroke-opacity:1;stroke-dasharray:none" />
      <path
         sodipodi:nodetypes="cc"
         inkscape:connector-curvature="0"
         id="path3812-1-45-1"
         d="m 16.55179,403.06126 c 1.39128,6.89417 -12.24294,5.98349 -21.36041,7.5973"
         style="opacity:0.8;fill:#673c32;fill-opacity:1;stroke:#4a372e;stroke-width:1px;stroke-linecap:butt;stroke-linejoin:miter;stroke-opacity:1" />
      <path
         sodipodi:nodetypes="cc"
         inkscape:connector-curvature="0"
         id="path3812-1-45-15"
         d="m 22.24198,400.75444 c -1.06934,2.74186 -4.4766,3.13839 -18.746,3.13742"
         style="opacity:0.8;fill:#673c32;fill-opacity:1;stroke:#4a372e;stroke-width:1px;stroke-linecap:butt;stroke-linejoin:miter;stroke-opacity:1" />
      <path
         sodipodi:nodetypes="cc"
         inkscape:connector-curvature="0"
         id="path3812-1-45-14"
         d="m -26.12461,486.95306 c -7.57806,0.029 -18.04517,-0.3753 -37.04687,-0.2459"
         style="opacity:0.8;fill:#673c32;fill-opacity:1;stroke:#4a372e;stroke-width:1px;stroke-linecap:butt;stroke-linejoin:miter;stroke-opacity:1" />
      <path
         sodipodi:nodetypes="cc"
         inkscape:connector-curvature="0"
         id="path3812-1-45-14-2"
         d="m -22.66435,499.09656 c -7.57806,0.029 -8.58716,-0.2215 -27.58886,-0.092"
         style="opacity:0.8;fill:#673c32;fill-opacity:1;stroke:#4a372e;stroke-width:1px;stroke-linecap:butt;stroke-linejoin:miter;stroke-opacity:1" />
      <path
         sodipodi:nodetypes="cc"
         inkscape:connector-curvature="0"
         id="path3812-1-45-14-3"
         d="m -38.27392,520.47316 c 14.10095,2.9543 -1.81692,12.445 12.62692,8.7508"
         style="opacity:0.8;fill:#673c32;fill-opacity:1;stroke:#4a372e;stroke-width:1px;stroke-linecap:butt;stroke-linejoin:miter;stroke-opacity:1" />
      <path
         sodipodi:nodetypes="cc"
         inkscape:connector-curvature="0"
         id="path3812-1-45-14-22"
         d="m -21.51094,504.78676 c -8.4239,-1.0475 -11.81672,2.6236 -17.90016,3.9064"
         style="opacity:0.8;fill:#673c32;fill-opacity:1;stroke:#4a372e;stroke-width:1px;stroke-linecap:butt;stroke-linejoin:miter;stroke-opacity:1" />
      <path
         sodipodi:nodetypes="cc"
         inkscape:connector-curvature="0"
         id="path3812-1-45-14-22-1"
         d="m -38.23547,520.63096 c 13.41411,-9.8904 0.79396,-5.681 -0.75271,-11.7801"
         style="opacity:0.8;fill:#673c32;fill-opacity:1;stroke:#4a372e;stroke-width:1px;stroke-linecap:butt;stroke-linejoin:miter;stroke-opacity:1" />
      <path
         sodipodi:nodetypes="cc"
         inkscape:connector-curvature="0"
         id="path3812-1-45-14-22-6"
         d="m -47.15522,504.55996 c -8.4239,-1.0475 -11.81672,2.6236 -17.90016,3.9064"
         style="opacity:0.8;fill:#673c32;fill-opacity:1;stroke:#4a372e;stroke-width:1px;stroke-linecap:butt;stroke-linejoin:miter;stroke-opacity:1" />
      <path
         sodipodi:nodetypes="cc"
         inkscape:connector-curvature="0"
         id="path3812-1-45-14-22-8"
         d="m -89.41042,328.95719 c -8.4239,-1.0475 -34.46499,-5.91053 -40.54843,-4.62773"
         style="opacity:0.8;fill:#673c32;fill-opacity:1;stroke:#4a372e;stroke-width:1px;stroke-linecap:butt;stroke-linejoin:miter;stroke-opacity:1" />
      <path
         sodipodi:nodetypes="cc"
         inkscape:connector-curvature="0"
         id="path3812-1-45-14-22-5"
         d="m -46.41153,352.91841 c -10.99274,-2.30334 -27.00123,-0.34476 -38.03673,-2.55845"
         style="opacity:0.8;fill:#673c32;fill-opacity:1;stroke:#4a372e;stroke-width:1px;stroke-linecap:butt;stroke-linejoin:miter;stroke-opacity:1" />
      <path
         sodipodi:nodetypes="csc"
         inkscape:connector-curvature="0"
         id="path3812-1-45-14-22-7"
         d="m -115.9727,338.71307 c -3.87742,-0.48216 -15.53715,3.60323 -18.03576,4.42743 -2.92976,0.96643 20.97263,1.35546 17.68933,2.0478"
         style="opacity:0.8;fill:#673c32;fill-opacity:1;stroke:#4a372e;stroke-width:1px;stroke-linecap:butt;stroke-linejoin:miter;stroke-opacity:1" />
      <path
         sodipodi:nodetypes="csc"
         inkscape:connector-curvature="0"
         id="path3812-1-45-14-22-61"
         d="m -70.16177,400.79332 c -11.33342,-0.51384 -16.45344,2.64166 -24.08508,2.74608 -13.01417,0.17806 -24.61688,-0.63121 -33.48935,4.58544"
         style="opacity:0.8;fill:#673c32;fill-opacity:1;stroke:#4a372e;stroke-width:1px;stroke-linecap:butt;stroke-linejoin:miter;stroke-opacity:1" />
      <path
         sodipodi:nodetypes="cc"
         inkscape:connector-curvature="0"
         id="path3812-1-45-14-22-89"
         d="m -8.22423,402.64858 c -29.11731,15.22181 -36.93424,5.62058 -43.01768,6.90338"
         style="opacity:0.8;fill:#673c32;fill-opacity:1;stroke:#4a372e;stroke-width:1px;stroke-linecap:butt;stroke-linejoin:miter;stroke-opacity:1" />
      <path
         sodipodi:nodetypes="cssc"
         inkscape:connector-curvature="0"
         id="path3812-1-45-14-22-54"
         d="m -153.7917,411.63953 c 25.83603,-2.83312 39.47875,9.59288 -4.7518,12.87611 -8.49137,0.63031 -22.34105,10.75842 -38.77371,7.06572 -1.5557,-0.3496 1.05688,4.2714 -0.77659,4.658"
         style="opacity:0.8;fill:#673c32;fill-opacity:1;stroke:#4a372e;stroke-width:1px;stroke-linecap:butt;stroke-linejoin:miter;stroke-opacity:1" />
      <path
         sodipodi:nodetypes="cssc"
         inkscape:connector-curvature="0"
         id="path3812-1-45-14-22-3"
         d="m -170.48915,436.89976 c -1.57396,-0.1958 1.48339,3.9295 -2.53083,4.0434 -12.14203,0.3444 -37.81131,-2.2857 -40.76358,-1.1383 -1.2955,0.5035 2.35626,5.5354 0.84758,5.8535"
         style="opacity:0.8;fill:#673c32;fill-opacity:1;stroke:#4a372e;stroke-width:1px;stroke-linecap:butt;stroke-linejoin:miter;stroke-opacity:1" />
      <path
         sodipodi:nodetypes="cssc"
         inkscape:connector-curvature="0"
         id="path3812-1-45-14-22-12"
         d="m -143.94449,460.87566 c -3.75113,1.0847 -15.13681,4.1697 -14.36054,-1.3813 0.18029,-1.2892 -20.96069,-1.692 -36.6854,-3.8639 -2.93077,-0.4048 -1.27913,-4.7106 -6.38578,-3.4072"
         style="opacity:0.8;fill:#673c32;fill-opacity:1;stroke:#4a372e;stroke-width:1px;stroke-linecap:butt;stroke-linejoin:miter;stroke-opacity:1" />
      <path
         sodipodi:nodetypes="cssc"
         inkscape:connector-curvature="0"
         id="path3812-1-45-14-22-4"
         d="m -105.69735,494.84126 c -15.12332,-7.7732 -31.51982,-17.6883 -38.92314,-9.7168 -8.18996,8.8186 -10.2074,4.5497 -13.40961,4.7017 -9.86836,0.4685 -7.12981,-12.8399 -40.91998,-7.7759"
         style="opacity:0.8;fill:#673c32;fill-opacity:1;stroke:#4a372e;stroke-width:1px;stroke-linecap:butt;stroke-linejoin:miter;stroke-opacity:1" />
      <path
         sodipodi:nodetypes="csc"
         inkscape:connector-curvature="0"
         id="path3812-1-45-14-22-11"
         d="m -105.98277,494.98406 c -0.13768,2.6718 0.96829,5.0506 2.47171,5.1323 15.87847,0.8626 2.83883,-9.4817 -2.39001,-5.3646"
         style="opacity:0.8;fill:#673c32;fill-opacity:1;stroke:#4a372e;stroke-width:1px;stroke-linecap:butt;stroke-linejoin:miter;stroke-opacity:1" />
      <path
         sodipodi:nodetypes="cc"
         inkscape:connector-curvature="0"
         id="path3812-1-45-14-22-38"
         d="m -58.88742,455.45246 c -15.41685,6.3736 -11.81672,-4.2266 -29.45993,3.6209"
         style="opacity:0.8;fill:#673c32;fill-opacity:1;stroke:#4a372e;stroke-width:1px;stroke-linecap:butt;stroke-linejoin:miter;stroke-opacity:1" />
      <path
         sodipodi:nodetypes="csc"
         inkscape:connector-curvature="0"
         id="path3812-1-45-14-22-74"
         d="m -59.03013,472.57806 c -7.38459,-0.7885 -6.48794,-5.3805 -10.65035,-4.7254 -11.93403,1.8785 -11.24839,-7.6391 -13.67191,-9.9209"
         style="opacity:0.8;fill:#673c32;fill-opacity:1;stroke:#4a372e;stroke-width:1px;stroke-linecap:butt;stroke-linejoin:miter;stroke-opacity:1" />
      <path
         sodipodi:nodetypes="cc"
         inkscape:connector-curvature="0"
         id="path3812-1-45-14-2-2"
         d="m -39.05818,508.61036 c -7.57806,0.029 -8.58716,-0.2215 -27.58886,-0.092"
         style="opacity:0.8;fill:#673c32;fill-opacity:1;stroke:#4a372e;stroke-width:1px;stroke-linecap:butt;stroke-linejoin:miter;stroke-opacity:1" />
      <path
         sodipodi:nodetypes="cssc"
         inkscape:connector-curvature="0"
         id="path3812-1-45-14-2-79"
         d="m -67.02997,520.88376 c -2.57006,0.01 -12.55417,5.2349 -13.91531,0.3057 -1.41654,-5.1297 -8.24435,-7.5331 -12.42773,-6.7306 -3.54308,0.6796 -4.54667,-4.4155 -3.10109,-7.3676"
         style="opacity:0.8;fill:#673c32;fill-opacity:1;stroke:#4a372e;stroke-width:1px;stroke-linecap:butt;stroke-linejoin:miter;stroke-opacity:1" />
      <path
         sodipodi:nodetypes="cc"
         inkscape:connector-curvature="0"
         id="path3812-1-45-14-2-7"
         d="m -78.1616,513.74816 c -24.84635,3.7396 -6.16103,-7.6426 -26.44715,-10.0819"
         style="opacity:0.8;fill:#673c32;fill-opacity:1;stroke:#4a372e;stroke-width:1px;stroke-linecap:butt;stroke-linejoin:miter;stroke-opacity:1" />
      <path
         sodipodi:nodetypes="cc"
         inkscape:connector-curvature="0"
         id="path3812-1-45-14-2-3"
         d="m -51.84243,532.54236 c -1.10375,-0.155 -2.10701,-1.5336 -4.87461,-2.2251"
         style="opacity:0.8;fill:#673c32;fill-opacity:1;stroke:#4a372e;stroke-width:0.88012773px;stroke-linecap:butt;stroke-linejoin:miter;stroke-opacity:1" />
      <path
         sodipodi:nodetypes="cc"
         inkscape:connector-curvature="0"
         id="path3812-1-45-14-2-6"
         d="m -105.84796,551.13906 c -13.11608,7.0401 -13.3112,-6.037 -27.58886,-0.092"
         style="opacity:0.8;fill:#673c32;fill-opacity:1;stroke:#4a372e;stroke-width:1px;stroke-linecap:butt;stroke-linejoin:miter;stroke-opacity:1" />
      <path
         sodipodi:nodetypes="cc"
         inkscape:connector-curvature="0"
         id="path3812-1-45-14-2-8"
         d="m -86.29625,563.69776 c -24.27551,-5.2514 -41.69662,2.2046 -38.8632,-13.6497"
         style="opacity:0.8;fill:#673c32;fill-opacity:1;stroke:#4a372e;stroke-width:1px;stroke-linecap:butt;stroke-linejoin:miter;stroke-opacity:1" />
      <path
         sodipodi:nodetypes="cssc"
         inkscape:connector-curvature="0"
         id="path3812-1-45-14-2-60"
         d="m -91.43393,541.86266 c -2.40011,0.01 -8.86153,-3.1784 -12.96101,2.6839 -5.8016,8.2964 -20.49802,2.9912 -15.8207,-9.0836 0.56949,-1.4701 -3.31126,0.015 -5.22924,0.028"
         style="opacity:0.8;fill:#673c32;fill-opacity:1;stroke:#4a372e;stroke-width:1px;stroke-linecap:butt;stroke-linejoin:miter;stroke-opacity:1" />
      <path
         sodipodi:nodetypes="csc"
         inkscape:connector-curvature="0"
         id="path3812-1-45-14-2-28"
         d="m -106.41882,535.86866 c -9.68658,7.5187 -17.67497,5.8076 -19.73171,10.2111 -1.5957,3.4163 -6.63954,-0.1085 -7.99986,-0.7413"
         style="opacity:0.8;fill:#673c32;fill-opacity:1;stroke:#4a372e;stroke-width:1px;stroke-linecap:butt;stroke-linejoin:miter;stroke-opacity:1" />
      <path
         sodipodi:nodetypes="ccccc"
         inkscape:connector-curvature="0"
         id="path4466"
         d="m -180.299,210.66818 c 2.23416,16.99663 17.87864,-0.97502 28.57844,27.67209 2.59422,1.86517 4.04098,1.43543 3.02115,-3.92749 -16.05524,-27.23041 -22.82357,-11.4795 -28.92648,-23.74663 z"
         style="fill:#000000;fill-opacity:1;stroke:#000000;stroke-width:0.10000000000000001;stroke-linecap:butt;stroke-linejoin:miter;stroke-miterlimit:4;stroke-opacity:1;stroke-dasharray:none" />
      <path
         sodipodi:nodetypes="ccccc"
         inkscape:connector-curvature="0"
         id="path4468"
         d="m -174.79945,218.87135 c 2.60546,10.52504 -14.47076,-2.92514 -22.67552,7.69284 -0.72425,3.38004 2.39477,3.83353 2.98428,3.08376 8.29244,-11.07633 24.36621,5.11183 22.85126,-9.9924 z"
         style="fill:#000000;fill-opacity:1;stroke:#000000;stroke-width:0.10000000000000001;stroke-linecap:butt;stroke-linejoin:miter;stroke-miterlimit:4;stroke-opacity:1;stroke-dasharray:none" />
      <path
         sodipodi:nodetypes="ccccc"
         inkscape:connector-curvature="0"
         id="path4470"
         d="m -139.75585,232.11191 c 14.70953,-8.05357 29.34872,16.74264 37.72761,14.51941 1.08466,-0.51986 4.57288,2.58681 -0.85745,3.77276 -7.93695,0.35373 -22.89278,-21.03358 -33.78336,-15.54835 -5.29816,1.36893 -4.18486,-0.69152 -3.0868,-2.74382 z"
         style="fill:#000000;fill-opacity:1;stroke:#000000;stroke-width:0.10000000000000001;stroke-linecap:butt;stroke-linejoin:miter;stroke-miterlimit:4;stroke-opacity:1;stroke-dasharray:none" />
      <path
         sodipodi:nodetypes="ccccc"
         inkscape:connector-curvature="0"
         id="path4472"
         d="m -118.28295,211.48862 c 19.16254,29.9923 11.58105,8.16663 23.71638,14.66993 28.14237,19.72622 14.22069,4.63142 35.94132,5.86797 8.38684,10.00085 18.92031,11.25977 33.49633,11.24694 17.45723,8.91601 18.43402,-0.45283 35.69682,6.35697"
         style="fill:none;stroke:#000000;stroke-width:1.60000002;stroke-linecap:butt;stroke-linejoin:miter;stroke-miterlimit:4;stroke-opacity:1;stroke-dasharray:none" />
    </g>
  </g>
</svg>
